<svg xmlns="http://www.w3.org/2000/svg" xmlns:xlink="http://www.w3.org/1999/xlink" width="500" zoomAndPan="magnify" viewBox="0 0 375 187.499995" height="250" preserveAspectRatio="xMidYMid meet" version="1.0"><defs><g/><clipPath id="a4689e0834"><path d="M 97.410156 43.28125 L 286.996094 43.28125 L 286.996094 143.761719 L 97.410156 143.761719 Z M 97.410156 43.28125 " clip-rule="nonzero"/></clipPath></defs><g clip-path="url(#a4689e0834)"><path fill="#ffffff" d="M 131.15625 125.035156 L 138.5 102.609375 L 119.371094 88.769531 L 142.980469 88.824219 L 150.21875 66.359375 L 157.46875 88.824219 L 286.992188 81.640625 L 162.621094 81.730469 L 150.21875 43.28125 L 137.824219 81.730469 L 97.421875 81.640625 L 130.160156 105.316406 L 117.589844 143.710938 L 150.21875 119.894531 L 252.527344 108.652344 L 150.21875 111.121094 Z M 131.15625 125.035156 " fill-opacity="1" fill-rule="nonzero"/></g><g fill="#ffffff" fill-opacity="1"><g transform="translate(144.508481, 103.359496)"><g><path d="M 4.5 -13.9375 L 6.3125 -13.9375 L 10.296875 0 L 8.921875 0 L 7.921875 -3.53125 L 2.890625 -3.53125 L 1.890625 0 L 0.515625 0 Z M 5.390625 -12.546875 L 3.203125 -4.6875 L 7.59375 -4.6875 Z M 5.390625 -12.546875 "/></g></g></g><g fill="#ffffff" fill-opacity="1"><g transform="translate(155.101781, 103.359496)"><g><path d="M 8.75 -4.171875 L 2.125 -4.171875 C 2.144531 -3.148438 2.378906 -2.335938 2.828125 -1.734375 C 3.285156 -1.140625 3.984375 -0.84375 4.921875 -0.84375 C 5.546875 -0.84375 6.050781 -0.953125 6.4375 -1.171875 C 6.820312 -1.390625 7.101562 -1.664062 7.28125 -2 C 7.46875 -2.34375 7.5625 -2.675781 7.5625 -3 L 8.75 -3 L 8.75 -2.9375 C 8.75 -2.457031 8.613281 -1.972656 8.34375 -1.484375 C 8.070312 -1.003906 7.65625 -0.601562 7.09375 -0.28125 C 6.53125 0.03125 5.804688 0.1875 4.921875 0.1875 C 3.972656 0.1875 3.203125 -0.0195312 2.609375 -0.4375 C 2.015625 -0.851562 1.570312 -1.414062 1.28125 -2.125 C 1 -2.84375 0.859375 -3.632812 0.859375 -4.5 L 0.859375 -4.875 C 0.859375 -5.75 1 -6.539062 1.28125 -7.25 C 1.5625 -7.957031 1.992188 -8.519531 2.578125 -8.9375 C 3.171875 -9.351562 3.921875 -9.5625 4.828125 -9.5625 C 5.742188 -9.5625 6.488281 -9.351562 7.0625 -8.9375 C 7.644531 -8.519531 8.070312 -7.957031 8.34375 -7.25 C 8.613281 -6.539062 8.75 -5.75 8.75 -4.875 Z M 4.8125 -8.53125 C 3.925781 -8.53125 3.257812 -8.226562 2.8125 -7.625 C 2.375 -7.019531 2.144531 -6.210938 2.125 -5.203125 L 7.5 -5.203125 C 7.46875 -6.210938 7.234375 -7.019531 6.796875 -7.625 C 6.367188 -8.226562 5.707031 -8.53125 4.8125 -8.53125 Z M 4.8125 -8.53125 "/></g></g></g><g fill="#ffffff" fill-opacity="1"><g transform="translate(164.722448, 103.359496)"><g><path d="M 4.875 -9.5625 C 4.9375 -9.5625 4.992188 -9.554688 5.046875 -9.546875 C 5.097656 -9.546875 5.128906 -9.546875 5.140625 -9.546875 L 5.140625 -8.359375 L 4.90625 -8.359375 C 4.425781 -8.359375 4.023438 -8.285156 3.703125 -8.140625 C 3.378906 -7.992188 3.113281 -7.8125 2.90625 -7.59375 C 2.695312 -7.375 2.53125 -7.160156 2.40625 -6.953125 L 2.40625 0 L 1.171875 0 L 1.171875 -6.71875 L 1.0625 -9.375 L 2.09375 -9.375 L 2.265625 -8.140625 C 2.515625 -8.523438 2.851562 -8.859375 3.28125 -9.140625 C 3.71875 -9.421875 4.25 -9.5625 4.875 -9.5625 Z M 4.875 -9.5625 "/></g></g></g><g fill="#ffffff" fill-opacity="1"><g transform="translate(170.187045, 103.359496)"><g><path d="M 4.8125 0.1875 C 3.894531 0.1875 3.144531 -0.0195312 2.5625 -0.4375 C 1.988281 -0.851562 1.5625 -1.414062 1.28125 -2.125 C 1 -2.832031 0.859375 -3.613281 0.859375 -4.46875 L 0.859375 -4.90625 C 0.859375 -5.769531 1 -6.550781 1.28125 -7.25 C 1.5625 -7.957031 1.988281 -8.519531 2.5625 -8.9375 C 3.144531 -9.351562 3.894531 -9.5625 4.8125 -9.5625 C 5.726562 -9.5625 6.476562 -9.351562 7.0625 -8.9375 C 7.644531 -8.519531 8.070312 -7.957031 8.34375 -7.25 C 8.613281 -6.550781 8.75 -5.769531 8.75 -4.90625 L 8.75 -4.46875 C 8.75 -3.613281 8.613281 -2.832031 8.34375 -2.125 C 8.070312 -1.414062 7.644531 -0.851562 7.0625 -0.4375 C 6.476562 -0.0195312 5.726562 0.1875 4.8125 0.1875 Z M 4.8125 -0.921875 C 5.738281 -0.921875 6.414062 -1.242188 6.84375 -1.890625 C 7.28125 -2.535156 7.5 -3.394531 7.5 -4.46875 L 7.5 -4.90625 C 7.5 -5.976562 7.28125 -6.835938 6.84375 -7.484375 C 6.414062 -8.128906 5.738281 -8.453125 4.8125 -8.453125 C 3.875 -8.453125 3.191406 -8.128906 2.765625 -7.484375 C 2.335938 -6.835938 2.125 -5.976562 2.125 -4.90625 L 2.125 -4.46875 C 2.125 -3.394531 2.335938 -2.535156 2.765625 -1.890625 C 3.191406 -1.242188 3.875 -0.921875 4.8125 -0.921875 Z M 4.8125 -0.921875 "/></g></g></g><g fill="#ffffff" fill-opacity="1"><g transform="translate(179.807713, 103.359496)"><g><path d="M 8.265625 0 L 7.015625 0 L 7.015625 -6.390625 C 7.015625 -7.097656 6.832031 -7.617188 6.46875 -7.953125 C 6.101562 -8.285156 5.609375 -8.453125 4.984375 -8.453125 C 4.503906 -8.453125 4.09375 -8.375 3.75 -8.21875 C 3.414062 -8.070312 3.140625 -7.882812 2.921875 -7.65625 C 2.703125 -7.4375 2.53125 -7.21875 2.40625 -7 L 2.40625 0 L 1.171875 0 L 1.171875 -6.71875 L 1.0625 -9.375 L 2.09375 -9.375 L 2.265625 -8.046875 C 2.535156 -8.460938 2.925781 -8.816406 3.4375 -9.109375 C 3.945312 -9.410156 4.601562 -9.5625 5.40625 -9.5625 C 6.34375 -9.5625 7.050781 -9.28125 7.53125 -8.71875 C 8.019531 -8.15625 8.265625 -7.4375 8.265625 -6.5625 Z M 8.265625 0 "/></g></g></g><g fill="#ffffff" fill-opacity="1"><g transform="translate(189.145426, 103.359496)"><g><path d="M 4.8125 0.1875 C 3.894531 0.1875 3.144531 -0.0195312 2.5625 -0.4375 C 1.988281 -0.851562 1.5625 -1.414062 1.28125 -2.125 C 1 -2.832031 0.859375 -3.613281 0.859375 -4.46875 L 0.859375 -4.90625 C 0.859375 -5.769531 1 -6.550781 1.28125 -7.25 C 1.5625 -7.957031 1.988281 -8.519531 2.5625 -8.9375 C 3.144531 -9.351562 3.894531 -9.5625 4.8125 -9.5625 C 5.726562 -9.5625 6.476562 -9.351562 7.0625 -8.9375 C 7.644531 -8.519531 8.070312 -7.957031 8.34375 -7.25 C 8.613281 -6.550781 8.75 -5.769531 8.75 -4.90625 L 8.75 -4.46875 C 8.75 -3.613281 8.613281 -2.832031 8.34375 -2.125 C 8.070312 -1.414062 7.644531 -0.851562 7.0625 -0.4375 C 6.476562 -0.0195312 5.726562 0.1875 4.8125 0.1875 Z M 4.8125 -0.921875 C 5.738281 -0.921875 6.414062 -1.242188 6.84375 -1.890625 C 7.28125 -2.535156 7.5 -3.394531 7.5 -4.46875 L 7.5 -4.90625 C 7.5 -5.976562 7.28125 -6.835938 6.84375 -7.484375 C 6.414062 -8.128906 5.738281 -8.453125 4.8125 -8.453125 C 3.875 -8.453125 3.191406 -8.128906 2.765625 -7.484375 C 2.335938 -6.835938 2.125 -5.976562 2.125 -4.90625 L 2.125 -4.46875 C 2.125 -3.394531 2.335938 -2.535156 2.765625 -1.890625 C 3.191406 -1.242188 3.875 -0.921875 4.8125 -0.921875 Z M 4.8125 -0.921875 "/></g></g></g><g fill="#ffffff" fill-opacity="1"><g transform="translate(198.766094, 103.359496)"><g><path d="M 4.875 -9.5625 C 4.9375 -9.5625 4.992188 -9.554688 5.046875 -9.546875 C 5.097656 -9.546875 5.128906 -9.546875 5.140625 -9.546875 L 5.140625 -8.359375 L 4.90625 -8.359375 C 4.425781 -8.359375 4.023438 -8.285156 3.703125 -8.140625 C 3.378906 -7.992188 3.113281 -7.8125 2.90625 -7.59375 C 2.695312 -7.375 2.53125 -7.160156 2.40625 -6.953125 L 2.40625 0 L 1.171875 0 L 1.171875 -6.71875 L 1.0625 -9.375 L 2.09375 -9.375 L 2.265625 -8.140625 C 2.515625 -8.523438 2.851562 -8.859375 3.28125 -9.140625 C 3.71875 -9.421875 4.25 -9.5625 4.875 -9.5625 Z M 4.875 -9.5625 "/></g></g></g><g fill="#ffffff" fill-opacity="1"><g transform="translate(204.655222, 103.359496)"><g><path d="M 3.265625 -9.375 L 6.265625 -9.375 L 6.265625 -8.265625 L 3.265625 -8.265625 L 3.265625 -2.765625 C 3.265625 -2.015625 3.414062 -1.519531 3.71875 -1.28125 C 4.03125 -1.039062 4.484375 -0.921875 5.078125 -0.921875 C 5.273438 -0.921875 5.472656 -0.9375 5.671875 -0.96875 C 5.878906 -1.007812 6.015625 -1.046875 6.078125 -1.078125 L 6.078125 0 C 6.015625 0.0195312 5.875 0.0546875 5.65625 0.109375 C 5.445312 0.160156 5.15625 0.1875 4.78125 0.1875 C 3.988281 0.1875 3.332031 -0.0195312 2.8125 -0.4375 C 2.289062 -0.863281 2.03125 -1.582031 2.03125 -2.59375 L 2.03125 -8.265625 L 0.546875 -8.265625 L 0.546875 -9.375 L 2.03125 -9.375 L 2.03125 -12.03125 L 3.265625 -12.03125 Z M 3.265625 -9.375 "/></g></g></g><g fill="#ffffff" fill-opacity="1"><g transform="translate(211.729249, 103.359496)"><g><path d="M 2.40625 -14.15625 L 2.40625 -8.25 C 2.6875 -8.625 3.070312 -8.9375 3.5625 -9.1875 C 4.050781 -9.4375 4.664062 -9.5625 5.40625 -9.5625 C 6.34375 -9.5625 7.050781 -9.28125 7.53125 -8.71875 C 8.019531 -8.15625 8.265625 -7.4375 8.265625 -6.5625 L 8.265625 0 L 7.015625 0 L 7.015625 -6.390625 C 7.015625 -7.097656 6.832031 -7.617188 6.46875 -7.953125 C 6.101562 -8.285156 5.609375 -8.453125 4.984375 -8.453125 C 4.503906 -8.453125 4.09375 -8.375 3.75 -8.21875 C 3.414062 -8.070312 3.140625 -7.882812 2.921875 -7.65625 C 2.703125 -7.4375 2.53125 -7.21875 2.40625 -7 L 2.40625 0 L 1.171875 0 L 1.171875 -14.15625 Z M 2.40625 -14.15625 "/></g></g></g></svg>